<svg width="512" height="512" viewBox="0 0 512 512" fill="none" xmlns="http://www.w3.org/2000/svg">
<mask id="mask0_105_2" style="mask-type:alpha" maskUnits="userSpaceOnUse" x="0" y="0" width="510" height="507">
<path d="M35.7706 154.586C82.5996 155.756 116.817 142.234 157.734 116.232C197.416 91.0148 236.537 63.1883 272.223 30.8847C274.519 28.8056 296.18 5.21999 294.282 15.2904C290.068 37.6389 283.911 59.4937 279.424 81.777C273.31 112.116 267.909 142.745 257.821 171.761C242.871 214.751 221.871 253.392 200.029 291.985C152.141 376.598 88.5137 443.511 12.8 494.08" stroke="black" stroke-width="24" stroke-linecap="round" stroke-linejoin="round"/>
<path d="M378.158 27.4056C370.655 171.212 317.517 319.688 234.356 427.712C232.046 430.712 214.41 457.654 217.58 456.765C259.259 445.099 294.723 413.55 335.66 398.659C381.499 381.983 437.98 388.844 463.713 440.84C466.685 446.845 468.995 431.411 469.583 429.22C480.881 387.187 482.921 342.205 483.843 298.58" stroke="black" stroke-width="24" stroke-linecap="round" stroke-linejoin="round"/>
<path d="M493.642 125.44C482.45 141.567 468.48 156.63 468.48 178.384C468.48 183.954 468.506 189.857 474.632 188.93C485.596 187.269 492.396 180.617 496.998 169.99" stroke="black" stroke-width="24" stroke-linecap="round" stroke-linejoin="round"/>
</mask>
<g mask="url(#mask0_105_2)">
<path d="M512 0H0V512H512V0Z" fill="url(#paint0_linear_105_2)"/>
</g>
<defs>
<linearGradient id="paint0_linear_105_2" x1="0" y1="0" x2="0" y2="512" gradientUnits="userSpaceOnUse">
<stop stop-color="#4CF9FF"/>
<stop offset="1" stop-color="#4CFF94"/>
</linearGradient>
</defs>
</svg>
