<svg width="197" height="198" viewBox="0 0 197 198" fill="none" xmlns="http://www.w3.org/2000/svg">
<mask id="mask0" mask-type="alpha" maskUnits="userSpaceOnUse" x="-1" y="-4" width="203" height="203">
<path d="M14.0389 57.6163C32.7416 58.0832 46.4076 52.6887 62.7488 42.3155C78.5971 32.2554 94.2217 21.1544 108.474 8.2673C109.391 7.43789 118.042 -1.9713 117.284 2.04615C115.601 10.9618 113.142 19.6805 111.35 28.5701C108.908 40.6734 106.751 52.8926 102.722 64.4679C96.751 81.6183 88.364 97.0335 79.6407 112.43C60.5154 146.185 35.1036 172.879 4.86487 193.053" stroke="black" stroke-width="10" stroke-linecap="round" stroke-linejoin="round"/>
<path d="M147.718 10.7053C144.787 66.8795 124.03 124.878 91.5452 167.075C90.6431 168.247 83.7539 178.771 84.9923 178.424C101.273 173.867 115.126 161.543 131.117 155.726C149.023 149.212 171.086 151.892 181.138 172.203C182.299 174.549 183.201 168.52 183.431 167.664C187.844 151.245 188.641 133.674 189.001 116.633" stroke="black" stroke-width="10" stroke-linecap="round" stroke-linejoin="round"/>
<path d="M195.554 48.5367C191.182 54.8365 185.725 60.7202 185.725 69.2179C185.725 71.3938 185.735 73.6997 188.128 73.3373C192.411 72.6887 195.067 70.0903 196.865 65.9392" stroke="black" stroke-width="10" stroke-linecap="round" stroke-linejoin="round"/>
</mask>
<g mask="url(#mask0)">
<path d="M196.865 0.998627H0.920624V197.971H196.865V0.998627Z" fill="url(#paint0_linear)"/>
<path d="M196.865 0.998627H0.920624V197.971H196.865V0.998627Z" fill="url(#paint1_linear)"/>
</g>
<defs>
<linearGradient id="paint0_linear" x1="0.920624" y1="0.998627" x2="0.920624" y2="197.971" gradientUnits="userSpaceOnUse">
<stop stop-color="#00C8FF"/>
<stop offset="1" stop-color="#00FF64"/>
</linearGradient>
<linearGradient id="paint1_linear" x1="0.920624" y1="0.998627" x2="0.920624" y2="197.971" gradientUnits="userSpaceOnUse">
<stop stop-color="#00C8FF"/>
<stop offset="1" stop-color="#00FF64"/>
</linearGradient>
</defs>
</svg>
