<svg width="199" height="174" viewBox="0 0 199 174" fill="none" xmlns="http://www.w3.org/2000/svg">
<path d="M11 52.3333C30.0274 52.7447 43.9306 47.9916 60.5556 38.8518C76.679 29.9878 92.5749 20.2067 107.074 8.85185C108.007 8.12105 116.809 -0.169415 116.037 3.37037C114.325 11.226 111.824 18.9081 110 26.7407C107.517 37.405 105.322 48.1713 101.222 58.3704C95.1481 73.4816 86.6155 87.064 77.7408 100.63C58.2834 130.372 32.4304 153.892 1.66669 171.667" stroke="black" stroke-width="3" stroke-linecap="round" stroke-linejoin="round"/>
<path d="M147 11C144.018 60.4953 122.9 111.598 89.8519 148.778C88.9341 149.81 81.9253 159.083 83.1852 158.778C99.748 154.763 113.842 143.904 130.111 138.778C148.327 133.038 170.774 135.4 181 153.296C182.181 155.363 183.099 150.051 183.333 149.296C187.823 134.83 188.634 119.348 189 104.333" stroke="black" stroke-width="3" stroke-linecap="round" stroke-linejoin="round"/>
<path d="M195.667 44.3333C191.218 49.8841 185.667 55.0682 185.667 62.5556C185.667 64.4727 185.677 66.5045 188.111 66.1852C192.469 65.6137 195.171 63.3242 197 59.6667" stroke="black" stroke-width="3" stroke-linecap="round" stroke-linejoin="round"/>
</svg>
